<?xml version="1.0" standalone="no"?>
<!DOCTYPE svg PUBLIC "-//W3C//DTD SVG 20010904//EN"
 "http://www.w3.org/TR/2001/REC-SVG-20010904/DTD/svg10.dtd">
<svg version="1.0" xmlns="http://www.w3.org/2000/svg"
 width="700.000000pt" height="700.000000pt" viewBox="0 0 700.000000 700.000000"
 preserveAspectRatio="xMidYMid meet">
<metadata>
Created by potrace 1.14, written by Peter Selinger 2001-2017
</metadata>
<g transform="translate(0.000000,700.000000) scale(0.100000,-0.100000)"
fill="#000000" stroke="none">
<path d="M2707 4920 c-33 -14 -9 -25 55 -27 79 -1 110 -13 129 -52 21 -39 24
-2081 4 -2222 -31 -218 -113 -321 -264 -332 -47 -4 -66 -21 -32 -30 10 -2 34
-3 53 -1 100 10 129 15 152 24 14 5 26 8 26 6 0 -3 27 9 61 25 118 58 205 181
245 349 16 69 18 162 20 1105 2 567 7 1043 11 1059 14 47 49 66 127 69 42 2
71 8 74 15 2 7 -5 12 -15 13 -73 4 -636 3 -646 -1z"/>
<path d="M3833 3907 c-9 -16 8 -21 65 -22 66 -1 119 -19 127 -45 3 -9 9 -46
13 -81 9 -83 8 -1646 -2 -1720 -10 -80 -28 -93 -127 -98 -59 -2 -79 -7 -79
-17 0 -12 56 -14 340 -14 309 0 364 4 332 24 -5 3 -39 6 -76 7 -82 3 -112 23
-126 84 -13 58 -12 1717 1 1778 14 64 40 80 132 81 55 1 72 5 72 16 0 12 -52
14 -333 14 -184 1 -336 -3 -339 -7z"/>
</g>
</svg>
